<svg width="224" height="160" viewBox="0 0 224 160" fill="none" xmlns="http://www.w3.org/2000/svg">
<path d="M160 108C160 110.374 159.296 112.694 157.978 114.667C156.659 116.64 154.785 118.178 152.592 119.087C150.4 119.995 147.987 120.233 145.659 119.77C143.331 119.307 141.193 118.164 139.515 116.485C137.837 114.807 136.694 112.669 136.231 110.341C135.768 108.013 136.005 105.601 136.913 103.408C137.822 101.215 139.36 99.3411 141.333 98.0226C143.307 96.704 145.627 96.0002 148 96.0002C151.183 96.0002 154.235 97.2645 156.485 99.5149C158.736 101.765 160 104.818 160 108ZM76 96.0002C73.6267 96.0002 71.3066 96.704 69.3332 98.0226C67.3598 99.3411 65.8217 101.215 64.9135 103.408C64.0052 105.601 63.7676 108.013 64.2306 110.341C64.6936 112.669 65.8365 114.807 67.5147 116.485C69.193 118.164 71.3312 119.307 73.6589 119.77C75.9867 120.233 78.3995 119.995 80.5922 119.087C82.7849 118.178 84.6591 116.64 85.9777 114.667C87.2962 112.694 88 110.374 88 108C88 104.818 86.7357 101.765 84.4853 99.5149C82.2349 97.2645 79.1826 96.0002 76 96.0002ZM224 120V144C224 148.244 222.314 152.313 219.314 155.314C216.313 158.314 212.243 160 208 160H16C11.7566 160 7.68691 158.314 4.68632 155.314C1.68574 152.313 3.27497e-05 148.244 3.27497e-05 144V121.1C-0.0116858 105.68 3.12156 90.4199 9.20823 76.252C15.2949 62.0842 24.2071 49.3065 35.4 38.7002L10.3 13.7002C9.02433 12.1458 8.37239 10.1725 8.47103 8.16409C8.56967 6.15567 9.41184 4.25574 10.8337 2.83387C12.2556 1.41199 14.1555 0.569825 16.1639 0.471185C18.1724 0.372544 20.1457 1.02448 21.7 2.30018L47.8 28.5002C66.5913 15.192 89.0419 8.02801 112.068 7.9922C135.095 7.95639 157.568 15.0505 176.4 28.3002L202.3 2.30018C203.854 1.02448 205.828 0.372544 207.836 0.471185C209.845 0.569825 211.744 1.41199 213.166 2.83387C214.588 4.25574 215.43 6.15567 215.529 8.16409C215.628 10.1725 214.976 12.1458 213.7 13.7002L188.8 38.5002L191.1 40.7002C201.566 51.0783 209.864 63.4333 215.512 77.047C221.16 90.6607 224.045 105.261 224 120V120ZM208 120C208.043 107.362 205.572 94.8415 200.731 83.1673C195.89 71.4932 188.775 60.8986 179.8 52.0002C177.353 49.6011 174.783 47.3314 172.1 45.2002C172.1 45.1737 172.089 45.1482 172.071 45.1295C172.052 45.1107 172.027 45.1002 172 45.1002C155.018 31.382 133.83 23.9308 112 24.0002H111.7C58.9 24.2002 16 67.8002 16 121.1V144H208V120Z" fill="#FBC12C"/>
</svg>
