<svg width="24" height="24" viewBox="0 0 24 24" fill="none" xmlns="http://www.w3.org/2000/svg">
<path d="M4.99319 11.0162C4.77597 11.0164 4.56458 10.9459 4.39099 10.8153C4.21741 10.6847 4.09107 10.5011 4.03108 10.2924C3.97109 10.0836 3.98071 9.86096 4.05849 9.65813C4.13628 9.45531 4.27798 9.28333 4.46219 9.1682L7.15019 6.4802C7.33783 6.29269 7.59228 6.18741 7.85755 6.1875C8.12282 6.18759 8.37718 6.29306 8.56469 6.4807C8.7522 6.66834 8.85749 6.92279 8.85739 7.18806C8.8573 7.45333 8.75183 7.70769 8.56419 7.8952L7.44319 9.0152H14.9932C15.2584 9.0152 15.5128 9.12056 15.7003 9.3081C15.8878 9.49563 15.9932 9.74999 15.9932 10.0152C15.9932 10.2804 15.8878 10.5348 15.7003 10.7223C15.5128 10.9098 15.2584 11.0152 14.9932 11.0152H4.99319V11.0162ZM19.0072 12.9842C19.2244 12.984 19.4358 13.0545 19.6094 13.1851C19.783 13.3157 19.9093 13.4993 19.9693 13.708C20.0293 13.9168 20.0197 14.1395 19.9419 14.3423C19.8641 14.5451 19.7224 14.7171 19.5382 14.8322L16.8502 17.5202C16.7573 17.613 16.647 17.6867 16.5256 17.7369C16.4043 17.7871 16.2742 17.813 16.1428 17.8129C16.0115 17.8129 15.8814 17.7869 15.7601 17.7366C15.6388 17.6863 15.5285 17.6126 15.4357 17.5197C15.3428 17.4268 15.2692 17.3165 15.219 17.1951C15.1688 17.0738 15.1429 16.9437 15.143 16.8124C15.143 16.681 15.169 16.5509 15.2193 16.4296C15.2696 16.3083 15.3433 16.198 15.4362 16.1052L16.5572 14.9852H9.00719C8.74198 14.9852 8.48762 14.8798 8.30009 14.6923C8.11255 14.5048 8.00719 14.2504 8.00719 13.9852C8.00719 13.72 8.11255 13.4656 8.30009 13.2781C8.48762 13.0906 8.74198 12.9852 9.00719 12.9852H19.0072V12.9842Z" fill="white"/>
</svg>
