<svg width="749" height="567" viewBox="0 0 749 567" fill="none" xmlns="http://www.w3.org/2000/svg">
<g clip-path="url(#clip0_4_106)">
<path d="M67.6935 247.635C53.8269 260.054 76.5176 369.067 76.5176 369.067C76.5176 369.067 81.5599 535.346 92.2749 542.935C102.99 550.525 126.941 542.245 136.396 540.865C145.85 539.485 137.656 436.682 123.79 398.735C109.923 360.787 120.638 305.591 120.638 305.591L195.643 321.46C195.643 321.46 150.262 363.547 152.153 372.517C154.044 381.486 202.577 411.844 211.401 413.224C220.225 414.604 237.243 358.027 252.37 319.39C267.497 280.753 149.002 255.914 149.002 255.914L132.614 222.107C132.614 222.107 81.56 235.216 67.6935 247.635Z" fill="#2F2E41"/>
<path d="M105.338 545.798C105.338 545.798 100.764 563.322 105.338 563.322C109.912 563.322 118.297 568.328 131.256 566.66C144.215 564.991 140.403 547.467 131.256 544.964C122.108 542.461 124.395 522.434 124.395 522.434C121.346 515.758 106.862 524.103 106.862 524.103L105.338 545.798Z" fill="#2F2E41"/>
<path d="M170.272 406.451C170.272 406.451 162.425 422.524 166.896 423.58C171.367 424.636 178.599 431.466 191.589 432.826C204.578 434.186 204.228 416.177 195.768 411.618C187.309 407.059 193.402 388.011 193.402 388.011C191.708 380.782 175.942 385.595 175.942 385.595L170.272 406.451Z" fill="#2F2E41"/>
<path d="M76.2024 98.2599C77.4629 101.02 71.7903 135.517 71.7903 135.517L76.8327 145.177C76.8327 145.177 105.826 132.758 101.414 130.688C97.0021 128.618 97.6324 103.09 97.6324 103.09C97.6324 103.09 74.9418 95.5 76.2024 98.2599Z" fill="#FFB9B9"/>
<path d="M87.1152 108.894C108.459 108.894 125.761 89.9537 125.761 66.59C125.761 43.2264 108.459 24.2864 87.1152 24.2864C65.7717 24.2864 48.4694 43.2264 48.4694 66.59C48.4694 89.9537 65.7717 108.894 87.1152 108.894Z" fill="#2F2E41"/>
<path d="M84.45 44.4917C93.2818 44.4917 100.441 36.6545 100.441 26.9868C100.441 17.319 93.2818 9.48181 84.45 9.48181C75.6182 9.48181 68.4586 17.319 68.4586 26.9868C68.4586 36.6545 75.6182 44.4917 84.45 44.4917Z" fill="#2F2E41"/>
<path d="M91.4462 34.9153C91.9996 34.9782 92.5556 35.0098 93.112 35.01C95.212 35.01 97.2914 34.5572 99.2316 33.6775C101.172 32.7978 102.935 31.5084 104.42 29.8829C105.905 28.2574 107.082 26.3277 107.886 24.2039C108.69 22.0801 109.103 19.8038 109.103 17.505C109.103 15.2062 108.69 12.9299 107.886 10.8061C107.082 8.68231 105.905 6.75258 104.42 5.12709C102.935 3.5016 101.172 2.2122 99.2316 1.33249C97.2914 0.452779 95.212 -6.85092e-08 93.112 0C92.5556 0.000156633 91.9996 0.0317451 91.4462 0.0946423C95.3775 0.545524 99.0169 2.57422 101.662 5.7893C104.308 9.00438 105.772 13.178 105.772 17.505C105.772 21.8319 104.308 26.0056 101.662 29.2207C99.0169 32.4358 95.3775 34.4645 91.4462 34.9153V34.9153Z" fill="#2F2E41"/>
<path d="M88.178 116.199C102.798 116.199 114.65 103.225 114.65 87.2206C114.65 71.2165 102.798 58.2426 88.178 58.2426C73.5577 58.2426 61.7056 71.2165 61.7056 87.2206C61.7056 103.225 73.5577 116.199 88.178 116.199Z" fill="#FFB9B9"/>
<path d="M50.0451 131.723C41.8512 133.792 27.9847 155.871 27.9847 155.871L50.0451 180.019C50.0451 180.019 65.8025 244.875 67.6934 247.635C80.0812 265.715 135.765 225.556 135.765 225.556C135.765 225.556 133.559 205.893 134.82 196.233C136.032 186.943 130.093 168.29 130.093 168.29C130.093 168.29 150.892 158.631 146.48 148.972C142.068 139.312 114.966 117.234 103.62 124.823C92.275 132.413 69.5843 124.823 69.5843 124.823C69.5843 124.823 58.239 129.653 50.0451 131.723Z" fill="#E6E6E6"/>
<path d="M211.086 270.748C211.086 270.748 247.012 304.556 255.837 297.657C264.661 290.757 221.801 266.609 221.801 266.609L211.086 270.748Z" fill="#FFB9B9"/>
<path d="M49.73 259.019C54.7724 265.229 78.7236 249.36 75.653 242.312C72.5823 235.265 53.5117 249.36 53.5117 249.36C53.5117 249.36 44.6876 252.81 49.73 259.019Z" fill="#FFB9B9"/>
<path d="M50.0451 165.53L23.5727 219.347C23.5727 219.347 53.8269 246.945 57.6086 247.635C61.3904 248.325 50.0451 266.264 50.0451 266.264C50.0451 266.264 16.0091 240.045 2.77294 226.936C-10.4633 213.827 27.9848 155.871 27.9848 155.871L39.3301 148.281L50.0451 165.53Z" fill="#E6E6E6"/>
<path d="M126.941 163.461L157.826 215.897C157.826 215.897 205.098 273.853 211.401 276.613C217.704 279.373 225.267 266.264 225.267 266.264L168.541 191.059L147.111 148.971L138.917 145.522L126.941 163.461Z" fill="#E6E6E6"/>
<path d="M87.1152 70.2958C101.835 70.2958 113.768 62.4586 113.768 52.7909C113.768 43.1231 101.835 35.2859 87.1152 35.2859C72.3956 35.2859 60.463 43.1231 60.463 52.7909C60.463 62.4586 72.3956 70.2958 87.1152 70.2958Z" fill="#2F2E41"/>
<path d="M161.884 430.481C161.01 430.482 160.173 430.862 159.555 431.538C158.937 432.214 158.59 433.131 158.589 434.087V557.098C158.59 558.054 158.937 558.97 159.555 559.647C160.173 560.323 161.01 560.703 161.884 560.704H545.06C545.933 560.703 546.771 560.323 547.388 559.647C548.006 558.97 548.354 558.054 548.355 557.098V434.087C548.354 433.131 548.006 432.214 547.388 431.538C546.771 430.862 545.933 430.482 545.06 430.48L161.884 430.481Z" fill="#E6E6E6"/>
<path d="M166.846 551.666H540.098V439.519H166.846V551.666Z" fill="white"/>
<path d="M492.984 528.4C492.267 528.399 491.557 528.553 490.894 528.853C490.231 529.153 489.628 529.593 489.121 530.148C488.613 530.703 488.211 531.361 487.936 532.087C487.662 532.812 487.52 533.589 487.52 534.375C487.52 535.16 487.662 535.937 487.936 536.663C488.211 537.388 488.613 538.047 489.121 538.602C489.628 539.156 490.231 539.596 490.894 539.896C491.557 540.196 492.267 540.35 492.984 540.349H514.815C516.262 540.349 517.65 539.719 518.674 538.599C519.698 537.479 520.273 535.959 520.273 534.375C520.273 532.79 519.698 531.271 518.674 530.15C517.65 529.03 516.262 528.4 514.815 528.4H492.984Z" fill="#FB762C"/>
<path d="M520.273 516.812H268.265V518.384H520.273V516.812Z" fill="#E6E6E6"/>
<path d="M215.587 530.389C233.143 530.389 247.375 514.81 247.375 495.592C247.375 476.374 233.143 460.795 215.587 460.795C198.031 460.795 183.799 476.374 183.799 495.592C183.799 514.81 198.031 530.389 215.587 530.389Z" fill="#FB762C"/>
<path d="M268.663 508.035L267.867 506.727L294.054 487.616L312.011 497.052L337.841 478.988L389.222 502.98L430.139 480.978L469.871 498.61L519.797 450.206L520.749 451.383L470.157 500.434L430.195 482.699L389.263 504.709L337.974 480.759L312.111 498.848L294.17 489.422L268.663 508.035Z" fill="#3F3D56"/>
<path d="M272.931 529.222C272.318 529.221 271.711 529.353 271.144 529.609C270.577 529.866 270.062 530.242 269.628 530.716C269.194 531.191 268.849 531.754 268.614 532.374C268.379 532.994 268.259 533.659 268.259 534.331C268.259 535.002 268.379 535.667 268.614 536.287C268.849 536.907 269.194 537.471 269.628 537.945C270.062 538.42 270.577 538.796 271.144 539.052C271.711 539.309 272.318 539.44 272.931 539.439H321.753C322.99 539.438 324.176 538.899 325.05 537.941C325.923 536.983 326.414 535.684 326.414 534.331C326.414 532.977 325.923 531.679 325.05 530.721C324.176 529.763 322.99 529.224 321.753 529.222H272.931Z" fill="#E6E6E6"/>
<path d="M227.728 480.025H232.695L222.359 491.221C220.554 493.169 218.121 494.262 215.586 494.262C213.05 494.262 210.617 493.169 208.812 491.221L198.478 480.025H203.445L211.296 488.531C212.439 489.765 213.981 490.456 215.586 490.456C217.192 490.456 218.733 489.765 219.877 488.531L227.728 480.025ZM203.382 511.159H198.415L208.813 499.894C210.619 497.946 213.052 496.854 215.587 496.854C218.122 496.854 220.555 497.946 222.361 499.894L232.759 511.159H227.792L219.877 502.585C218.733 501.351 217.192 500.659 215.586 500.659C213.981 500.659 212.439 501.351 211.296 502.585L203.382 511.159Z" fill="white"/>
<path d="M211.78 36.4665C210.906 36.4676 210.069 36.8479 209.451 37.5241C208.833 38.2002 208.486 39.1169 208.485 40.0731V163.084C208.486 164.04 208.833 164.956 209.451 165.633C210.069 166.309 210.906 166.689 211.78 166.69H594.956C595.829 166.689 596.667 166.309 597.284 165.633C597.902 164.956 598.25 164.04 598.251 163.084V40.0731C598.25 39.1169 597.902 38.2002 597.284 37.524C596.667 36.8479 595.829 36.4676 594.956 36.4664L211.78 36.4665Z" fill="#E6E6E6"/>
<path d="M216.742 157.652H589.994V45.5046H216.742V157.652Z" fill="white"/>
<path d="M542.88 134.387C541.433 134.387 540.045 135.016 539.021 136.136C537.998 137.257 537.423 138.776 537.423 140.361C537.423 141.945 537.998 143.465 539.021 144.585C540.045 145.706 541.433 146.335 542.88 146.335H564.711C566.158 146.335 567.547 145.706 568.57 144.585C569.594 143.465 570.169 141.945 570.169 140.361C570.169 138.776 569.594 137.257 568.57 136.136C567.547 135.016 566.158 134.387 564.711 134.387H542.88Z" fill="#FB762C"/>
<path d="M570.169 122.798H318.161V124.37H570.169V122.798Z" fill="#E6E6E6"/>
<path d="M265.483 136.375C283.039 136.375 297.271 120.796 297.271 101.578C297.271 82.3607 283.039 66.7816 265.483 66.7816C247.927 66.7816 233.695 82.3607 233.695 101.578C233.695 120.796 247.927 136.375 265.483 136.375Z" fill="#FB762C"/>
<path d="M318.559 114.021L317.763 112.713L343.95 93.6024L361.907 103.038L387.737 84.9741L388.086 85.1364L439.118 108.966L480.035 86.9642L519.767 104.597L569.693 56.1915L570.645 57.3683L520.053 106.419L480.091 88.6851L439.16 110.695L387.871 86.7455L362.007 104.834L344.066 95.4066L318.559 114.021Z" fill="#3F3D56"/>
<path d="M322.827 135.208C321.591 135.21 320.405 135.749 319.531 136.707C318.657 137.665 318.167 138.963 318.167 140.317C318.167 141.671 318.657 142.969 319.531 143.927C320.405 144.885 321.591 145.424 322.827 145.426H371.649C372.887 145.426 374.074 144.887 374.949 143.929C375.825 142.971 376.316 141.672 376.316 140.317C376.316 138.962 375.825 137.663 374.949 136.705C374.074 135.747 372.887 135.208 371.649 135.208H322.827Z" fill="#E6E6E6"/>
<path d="M278.273 97.5169C278.867 93.1624 275.838 90.8216 271.697 89.26L273.04 83.3614L269.759 82.4666L268.452 88.2098C267.59 87.9746 266.704 87.7526 265.824 87.5328L267.142 81.7517L263.864 80.8569L262.519 86.7535C261.805 86.5756 261.105 86.3997 260.425 86.2146L260.428 86.1962L255.905 84.9598L255.032 88.7947C255.032 88.7947 257.466 89.4052 257.415 89.4431C257.869 89.5026 258.283 89.7547 258.569 90.1452C258.855 90.5357 258.989 91.0335 258.943 91.5313L257.413 98.2511C257.529 98.2827 257.643 98.3227 257.754 98.3708L257.408 98.2767L255.262 107.69C255.215 107.854 255.139 108.007 255.037 108.139C254.936 108.271 254.812 108.379 254.673 108.459C254.533 108.538 254.38 108.586 254.223 108.601C254.067 108.615 253.909 108.596 253.759 108.543C253.792 108.595 251.375 107.892 251.375 107.892L249.747 112.003L254.016 113.167C254.81 113.385 255.588 113.613 256.353 113.828L254.996 119.795L258.272 120.69L259.618 114.787C260.512 115.053 261.38 115.299 262.231 115.53L260.891 121.405L264.171 122.3L265.528 116.345C271.121 117.503 275.328 117.036 277.097 111.5C278.523 107.041 277.027 104.469 274.084 102.791C276.227 102.248 277.841 100.704 278.272 97.5169L278.273 97.5169ZM270.778 109.021C269.763 113.479 262.906 111.07 260.682 110.465L262.483 102.561C264.706 103.168 271.835 104.371 270.779 109.021H270.778ZM271.791 97.4524C270.866 101.508 265.158 99.4476 263.306 98.9424L264.939 91.7737C266.791 92.2789 272.755 93.2218 271.791 97.4524V97.4524Z" fill="white"/>
<path d="M362.529 233.473C361.656 233.475 360.818 233.855 360.201 234.531C359.583 235.207 359.235 236.124 359.234 237.08V360.09C359.235 361.047 359.583 361.963 360.201 362.639C360.818 363.316 361.656 363.696 362.529 363.697H745.705C746.579 363.696 747.416 363.316 748.034 362.639C748.652 361.963 748.999 361.047 749 360.09V237.08C748.999 236.124 748.652 235.207 748.034 234.531C747.416 233.855 746.579 233.475 745.705 233.473L362.529 233.473Z" fill="#E6E6E6"/>
<path d="M367.491 354.659H740.743V242.511H367.491V354.659Z" fill="white"/>
<path d="M693.63 331.394C692.182 331.394 690.794 332.023 689.771 333.143C688.747 334.264 688.172 335.783 688.172 337.368C688.172 338.952 688.747 340.472 689.771 341.592C690.794 342.713 692.182 343.342 693.63 343.342H715.46C716.908 343.342 718.296 342.713 719.319 341.592C720.343 340.472 720.918 338.952 720.918 337.368C720.918 335.783 720.343 334.264 719.319 333.143C718.296 332.023 716.908 331.394 715.46 331.394H693.63V331.394Z" fill="#FB762C"/>
<path d="M720.918 319.805H468.91V321.377H720.918V319.805Z" fill="#E6E6E6"/>
<path d="M416.232 333.382C433.788 333.382 448.02 317.803 448.02 298.585C448.02 279.368 433.788 263.789 416.232 263.789C398.676 263.789 384.444 279.368 384.444 298.585C384.444 317.803 398.676 333.382 416.232 333.382Z" fill="#FB762C"/>
<path d="M469.308 311.028L468.511 309.72L494.698 290.61L512.657 300.045L538.486 281.981L538.835 282.144L589.867 305.974L630.785 283.972L670.517 301.603L720.442 253.199L721.394 254.376L670.803 303.427L630.841 285.692L589.909 307.702L538.621 283.753L512.756 301.841L494.815 292.415L469.308 311.028Z" fill="#3F3D56"/>
<path d="M473.577 332.215C472.339 332.215 471.152 332.754 470.277 333.712C469.402 334.67 468.91 335.969 468.91 337.324C468.91 338.679 469.402 339.978 470.277 340.936C471.152 341.894 472.339 342.433 473.577 342.433H522.399C523.637 342.433 524.824 341.894 525.699 340.936C526.574 339.978 527.066 338.679 527.066 337.324C527.066 335.969 526.574 334.67 525.699 333.712C524.824 332.754 523.637 332.215 522.399 332.215H473.577Z" fill="#E6E6E6"/>
<path d="M416.229 321.519L429.097 301.681L416.229 309.998L403.368 301.681L416.228 321.519H416.229Z" fill="white"/>
<path d="M416.228 307.332H416.229L429.09 299.011L416.229 275.652H416.228L403.368 299.011L416.228 307.332Z" fill="white"/>
</g>
<defs>
<clipPath id="clip0_4_106">
<rect width="749" height="567" fill="white"/>
</clipPath>
</defs>
</svg>
