<svg width="28" height="28" viewBox="0 0 28 28" fill="none" xmlns="http://www.w3.org/2000/svg">
<path d="M10.75 3C10.5511 3 10.3603 3.07902 10.2197 3.21967C10.079 3.36032 10 3.55109 10 3.75C10 3.94891 10.079 4.13968 10.2197 4.28033C10.3603 4.42098 10.5511 4.5 10.75 4.5H17.25C17.4489 4.5 17.6397 4.42098 17.7803 4.28033C17.921 4.13968 18 3.94891 18 3.75C18 3.55109 17.921 3.36032 17.7803 3.21967C17.6397 3.07902 17.4489 3 17.25 3H10.75ZM14 9.5C14.1989 9.5 14.3897 9.57902 14.5303 9.71967C14.671 9.86032 14.75 10.0511 14.75 10.25V16.25C14.75 16.4489 14.671 16.6397 14.5303 16.7803C14.3897 16.921 14.1989 17 14 17C13.8011 17 13.6103 16.921 13.4697 16.7803C13.329 16.6397 13.25 16.4489 13.25 16.25V10.25C13.25 10.0511 13.329 9.86032 13.4697 9.71967C13.6103 9.57902 13.8011 9.5 14 9.5V9.5ZM14 6C8.477 6 4 10.477 4 16C4 21.523 8.477 26 14 26C19.523 26 24 21.523 24 16C24 10.477 19.523 6 14 6ZM5.5 16C5.5 13.7457 6.39553 11.5837 7.98959 9.98959C9.58365 8.39553 11.7457 7.5 14 7.5C16.2543 7.5 18.4163 8.39553 20.0104 9.98959C21.6045 11.5837 22.5 13.7457 22.5 16C22.5 18.2543 21.6045 20.4163 20.0104 22.0104C18.4163 23.6045 16.2543 24.5 14 24.5C11.7457 24.5 9.58365 23.6045 7.98959 22.0104C6.39553 20.4163 5.5 18.2543 5.5 16ZM22.28 6.22C22.2113 6.14631 22.1285 6.08721 22.0365 6.04622C21.9445 6.00523 21.8452 5.98319 21.7445 5.98141C21.6438 5.97963 21.5438 5.99816 21.4504 6.03588C21.357 6.0736 21.2722 6.12974 21.201 6.20096C21.1297 6.27218 21.0736 6.35701 21.0359 6.4504C20.9982 6.54379 20.9796 6.64382 20.9814 6.74452C20.9832 6.84523 21.0052 6.94454 21.0462 7.03654C21.0872 7.12854 21.1463 7.21134 21.22 7.28L22.72 8.78C22.7887 8.85369 22.8715 8.91279 22.9635 8.95378C23.0555 8.99477 23.1548 9.01682 23.2555 9.01859C23.3562 9.02037 23.4562 9.00184 23.5496 8.96412C23.643 8.9264 23.7278 8.87026 23.799 8.79904C23.8703 8.72782 23.9264 8.64299 23.9641 8.5496C24.0018 8.45621 24.0204 8.35618 24.0186 8.25548C24.0168 8.15478 23.9948 8.05546 23.9538 7.96346C23.9128 7.87146 23.8537 7.78866 23.78 7.72L22.28 6.22Z" fill="#FBC12C"/>
</svg>
