<svg width="87" height="85" viewBox="0 0 87 85" fill="none" xmlns="http://www.w3.org/2000/svg">
<ellipse rx="42.4124" ry="43.4103" transform="matrix(0.00211628 -0.999998 0.999998 0.0020201 43.5 42.5)" fill="url(#paint0_linear_17_313)"/>
<path d="M48.5266 64.7491C46.7932 64.7491 45.2332 64.3157 43.8466 63.4491C42.4599 62.5477 41.3679 61.3344 40.5706 59.8091C39.7732 58.2837 39.3746 56.5677 39.3746 54.6611V29.8571C39.3746 29.0944 39.6172 28.4704 40.1026 27.9851C40.5879 27.4997 41.2119 27.2571 41.9746 27.2571C42.7372 27.2571 43.3612 27.4997 43.8466 27.9851C44.3319 28.4704 44.5746 29.0944 44.5746 29.8571V54.6611C44.5746 56.0477 44.9559 57.2091 45.7186 58.1451C46.4812 59.0811 47.4172 59.5491 48.5266 59.5491H50.2946C50.9186 59.5491 51.4386 59.7917 51.8546 60.2771C52.3052 60.7624 52.5306 61.3864 52.5306 62.1491C52.5306 62.9117 52.2359 63.5357 51.6466 64.0211C51.0919 64.5064 50.3639 64.7491 49.4626 64.7491H48.5266ZM36.9826 41.8171C36.2546 41.8171 35.6652 41.6091 35.2146 41.1931C34.7639 40.7771 34.5386 40.2571 34.5386 39.6331C34.5386 38.9397 34.7639 38.3851 35.2146 37.9691C35.6652 37.5531 36.2546 37.3451 36.9826 37.3451H48.9946C49.7226 37.3451 50.3119 37.5531 50.7626 37.9691C51.2132 38.3851 51.4386 38.9397 51.4386 39.6331C51.4386 40.2571 51.2132 40.7771 50.7626 41.1931C50.3119 41.6091 49.7226 41.8171 48.9946 41.8171H36.9826Z" fill="white"/>
<defs>
<linearGradient id="paint0_linear_17_313" x1="80.9594" y1="19.453" x2="4.60831" y2="65.3449" gradientUnits="userSpaceOnUse">
<stop stop-color="#003BD2"/>
<stop offset="1" stop-color="#FB762C"/>
</linearGradient>
</defs>
</svg>
